<?xml version="1.0" encoding="utf-8"?>
<!-- Generator: Adobe Illustrator 16.0.0, SVG Export Plug-In . SVG Version: 6.00 Build 0)  -->
<!DOCTYPE svg PUBLIC "-//W3C//DTD SVG 1.1//EN" "http://www.w3.org/Graphics/SVG/1.1/DTD/svg11.dtd">
<svg version="1.1" id="Layer_1" xmlns="http://www.w3.org/2000/svg" xmlns:xlink="http://www.w3.org/1999/xlink" x="0px" y="0px"
	 width="100px" height="100px" viewBox="0 0 100 100" enable-background="new 0 0 100 100" xml:space="preserve">
<path fill="#5D5E61" d="M51.746,1.608C25.696,0.2,4.026,21.301,1.748,46.562C-0.599,72.575,19.77,94.932,44.926,98.113
	c25.266,3.195,49.842-16.212,53.023-41.359c0.287-2.26,0.446-4.493,0.487-6.771C97.968,23.9,77.786,3.015,51.746,1.608z
	 M50.03,95.278C25.005,95.728,5.172,74.324,4.734,49.982C4.284,24.959,25.687,5.125,50.03,4.687
	c25.025-0.451,44.86,20.952,45.295,45.295C94.876,75.006,75.055,94.827,50.03,95.278z"/>
<path fill="#5D5E61" d="M63.976,48.445c-4.14,0-8.281,0-12.421,0c0-4.141,0-8.282,0-12.422c0-2.005-3.11-2.005-3.11,0
	c0,4.142,0,8.283,0,12.422c-4.14,0-8.28,0-12.42,0c-2.005,0-2.005,3.109,0,3.109c4.142,0,8.28,0,12.42,0c0,4.143,0,8.283,0,12.423
	c0,2.004,3.11,2.004,3.11,0c0-4.14,0-8.28,0-12.423c4.14,0,8.281,0,12.421,0C65.981,51.555,65.981,48.445,63.976,48.445z"/>
</svg>
